<svg width="90" height="90" viewBox="0 0 90 90" fill="none" xmlns="http://www.w3.org/2000/svg">
<g filter="url(#filter0_d)">
<rect x="20" y="10" width="50" height="50" rx="15" fill="#EDE7F2"/>
</g>
<path fill-rule="evenodd" clip-rule="evenodd" d="M45.3807 23.5781C45.567 23.4109 45.8135 23.3232 46.0658 23.3345C51.3984 23.4941 55.8551 27.3653 56.6628 32.5392C56.6679 32.5701 56.6679 32.6016 56.6628 32.6325C56.6802 32.8773 56.5974 33.1188 56.4329 33.3037C56.2683 33.4885 56.0355 33.6013 55.7859 33.6173L46.8265 34.2081C46.5302 34.2344 46.2363 34.1369 46.0171 33.9396C45.7979 33.7423 45.6736 33.4634 45.6748 33.1715L45.0726 24.371V24.2259C45.0836 23.9784 45.1944 23.7453 45.3807 23.5781ZM44.7662 36.5093L52.5317 36.0118L52.5845 36.0325C52.918 36.0379 53.2356 36.1732 53.4674 36.4084C53.6992 36.6436 53.8263 36.9596 53.8207 37.2867C53.5147 41.7459 50.2454 45.4716 45.7965 46.4314C41.3475 47.3913 36.7868 45.3548 34.6023 41.433C33.96 40.3035 33.5541 39.0595 33.4084 37.7739C33.352 37.393 33.3272 37.0082 33.3345 36.6233C33.3492 31.8817 36.7251 27.7891 41.4487 26.7863C42.0205 26.6792 42.5938 26.9647 42.8433 27.4808C42.9054 27.5744 42.9551 27.6754 42.9912 27.7814C43.0798 29.1483 43.1716 30.5022 43.2631 31.8505C43.3353 32.9151 43.4073 33.9763 43.4772 35.0374C43.4736 35.2874 43.5129 35.5362 43.5934 35.7733C43.783 36.24 44.2548 36.5361 44.7662 36.5093Z" fill="#75578E"/>
<defs>
<filter id="filter0_d" x="0" y="0" width="90" height="90" filterUnits="userSpaceOnUse" color-interpolation-filters="sRGB">
<feFlood flood-opacity="0" result="BackgroundImageFix"/>
<feColorMatrix in="SourceAlpha" type="matrix" values="0 0 0 0 0 0 0 0 0 0 0 0 0 0 0 0 0 0 127 0"/>
<feOffset dy="10"/>
<feGaussianBlur stdDeviation="10"/>
<feColorMatrix type="matrix" values="0 0 0 0 0.0235294 0 0 0 0 0.301961 0 0 0 0 0.227451 0 0 0 0.03 0"/>
<feBlend mode="normal" in2="BackgroundImageFix" result="effect1_dropShadow"/>
<feBlend mode="normal" in="SourceGraphic" in2="effect1_dropShadow" result="shape"/>
</filter>
</defs>
</svg>
