<svg width="259" height="61" viewBox="0 0 259 61" fill="none" xmlns="http://www.w3.org/2000/svg">
<g clip-path="url(#clip0)">
<path d="M39.1775 20.2732C35.7019 18.2666 34.4566 13.751 36.4873 10.2335C38.494 6.75797 43.0096 5.51263 46.527 7.54342C50.0025 9.55003 51.2479 14.0656 49.2171 17.5831C47.1863 21.1005 42.6949 22.304 39.1775 20.2732Z" fill="white"/>
<path d="M94.2671 32.6094C100.094 22.5177 96.5893 9.43974 86.4976 3.6133C76.3641 -2.23731 63.328 1.29109 57.5016 11.3828L41.9805 38.266C41.9805 38.266 81.1153 55.3889 94.2671 32.6094Z" fill="white"/>
<path d="M7.39788 30.1124C3.3363 37.1473 5.73677 46.2381 12.7716 50.2996C19.8065 54.3612 28.8554 51.9366 32.917 44.9017L43.7237 26.1839C43.7656 26.2081 16.5364 14.284 7.39788 30.1124ZM18.2113 40.8779C16.3688 39.8142 15.7317 37.4364 16.7954 35.5939C17.8592 33.7514 20.237 33.1143 22.0794 34.1781C23.9219 35.2418 24.559 37.6196 23.4953 39.4621C22.4734 41.3287 20.0956 41.9659 18.2113 40.8779Z" fill="white"/>
<path d="M118.59 18.6C120.702 18.6 122.455 19.3407 123.848 20.822C125.256 22.3033 125.96 24.1293 125.96 26.3C125.96 28.456 125.256 30.282 123.848 31.778C122.455 33.2593 120.702 34 118.59 34H112.54V18.6H118.59ZM118.59 31.58C120.042 31.58 121.223 31.0813 122.132 30.084C123.056 29.0867 123.518 27.8253 123.518 26.3C123.518 24.76 123.056 23.4987 122.132 22.516C121.223 21.5187 120.042 21.02 118.59 21.02H115.07V31.58H118.59ZM129.367 18.6H131.897V34H129.367V18.6ZM151.056 26.036V27.092C151.056 29.204 150.359 30.9347 148.966 32.284C147.573 33.6187 145.754 34.286 143.51 34.286C141.134 34.286 139.169 33.516 137.614 31.976C136.074 30.436 135.304 28.544 135.304 26.3C135.304 24.0707 136.074 22.186 137.614 20.646C139.169 19.0913 141.09 18.314 143.378 18.314C144.815 18.314 146.128 18.644 147.316 19.304C148.504 19.964 149.428 20.8513 150.088 21.966L147.91 23.22C147.499 22.4867 146.891 21.9 146.084 21.46C145.277 21.0053 144.375 20.778 143.378 20.778C141.765 20.778 140.437 21.306 139.396 22.362C138.355 23.418 137.834 24.738 137.834 26.322C137.834 27.906 138.355 29.2187 139.396 30.26C140.452 31.3013 141.831 31.822 143.532 31.822C144.896 31.822 146.003 31.5067 146.854 30.876C147.719 30.2307 148.269 29.3727 148.504 28.302H143.356V26.036H151.056ZM154.469 18.6H156.999V34H154.469V18.6ZM164.432 34L160.076 18.6H162.738L165.972 30.634L169.47 18.6H171.802L175.278 30.634L178.512 18.6H181.174L176.818 34H173.892L170.636 22.758L167.358 34H164.432ZM193.385 18.6H195.915V34H193.385V27.334H186.785V34H184.255V18.6H186.785V24.914H193.385V18.6ZM210.125 34L209.047 30.898H202.491L201.413 34H198.663L204.251 18.6H207.287L212.853 34H210.125ZM203.327 28.522H208.211L205.769 21.57L203.327 28.522ZM218.139 31.58H224.409V34H215.609V18.6H218.139V31.58ZM229.917 31.58H236.737V34H227.387V18.6H236.627V21.02H229.917V25.024H236.077V27.422H229.917V31.58Z" fill="white"/>
</g>
<defs>
<clipPath id="clip0">
<rect width="259" height="61" fill="white"/>
</clipPath>
</defs>
</svg>
