<svg width="1920" height="1639" viewBox="0 0 1920 1639" fill="none" xmlns="http://www.w3.org/2000/svg">
<mask id="mask0" mask-type="alpha" maskUnits="userSpaceOnUse" x="0" y="0" width="1923" height="1639">
<path d="M1922.98 1638.01L0.978638 1638.01L0.978783 0.984087L961.979 0.984048L1922.98 0.984253L1922.98 1638.01Z" fill="url(#paint0_linear)"/>
</mask>
<g mask="url(#mask0)">
<path d="M1390 -22.749C1390 306.491 1657.29 573.701 1986.62 573.701V-22.749L1390 -22.749Z" fill="#8C80FC"/>
<path d="M1422.62 1815.07C1422.62 1485.83 1155.33 1218.62 825.998 1218.62L825.998 1815.07H1422.62Z" fill="#59B1FE"/>
<path d="M699.174 509.394C699.174 838.634 966.46 1105.84 1295.79 1105.84V509.394L699.174 509.394Z" fill="#6E9CFD"/>
<path d="M1971.52 828.888C1653.23 828.888 1394.92 1081.03 1394.92 1391.71L1971.52 1391.71L1971.52 828.888Z" fill="#7E8DFC"/>
<path d="M-54.0581 1127.61C264.225 1127.61 522.542 1379.76 522.542 1690.43L-54.0581 1690.43L-54.0581 1127.61Z" fill="#58B4FE"/>
<path d="M499.593 -108.804C499.593 205.694 244.415 460.939 -69.9998 460.939L-69.9999 -108.804L499.593 -108.804Z" fill="#52B7FE"/>
</g>
<defs>
<linearGradient id="paint0_linear" x1="0.978788" y1="1676.98" x2="2310.5" y2="678.354" gradientUnits="userSpaceOnUse">
<stop stop-color="#35D3FF"/>
<stop offset="1" stop-color="#A963FB"/>
</linearGradient>
</defs>
</svg>
